<?xml version="1.0" standalone="no"?>
<!DOCTYPE svg PUBLIC "-//W3C//DTD SVG 20010904//EN"
 "http://www.w3.org/TR/2001/REC-SVG-20010904/DTD/svg10.dtd">
<svg version="1.0" xmlns="http://www.w3.org/2000/svg"
 width="700.000000pt" height="700.000000pt" viewBox="0 0 700.000000 700.000000"
 preserveAspectRatio="xMidYMid meet">
<metadata>
Created by potrace 1.14, written by Peter Selinger 2001-2017
</metadata>
<g transform="translate(0.000000,700.000000) scale(0.100000,-0.100000)"
fill="#000000" stroke="none">
<path d="M0 3500 l0 -3500 3500 0 3500 0 0 3500 0 3500 -3500 0 -3500 0 0
-3500z m4270 2416 c635 -3 1208 -5 1273 -6 l119 0 -7 -72 c-3 -40 -8 -84 -10
-98 -2 -14 -7 -70 -11 -125 -3 -55 -8 -107 -9 -116 -2 -8 -6 -53 -10 -100 -4
-46 -8 -97 -10 -114 -1 -16 -6 -66 -9 -110 -4 -44 -9 -93 -11 -110 -2 -16 -7
-75 -11 -130 -3 -55 -8 -107 -9 -116 -2 -9 -6 -52 -10 -95 -3 -43 -8 -97 -10
-119 -4 -37 -6 -64 -20 -222 -3 -32 -7 -85 -10 -118 -10 -99 -15 -157 -20
-220 -6 -70 -13 -150 -20 -220 -2 -27 -7 -81 -10 -120 -3 -38 -8 -88 -10 -110
-3 -22 -7 -71 -11 -110 -3 -38 -7 -88 -9 -110 -2 -22 -7 -76 -11 -120 -3 -44
-8 -93 -10 -110 -1 -16 -5 -66 -9 -110 -3 -44 -7 -93 -9 -110 -3 -16 -7 -68
-11 -115 -4 -47 -9 -101 -10 -120 -2 -19 -6 -69 -10 -110 -3 -41 -8 -86 -10
-100 -2 -14 -6 -68 -10 -120 -4 -52 -8 -106 -10 -120 -2 -14 -7 -63 -10 -110
-3 -47 -8 -96 -10 -110 -2 -14 -7 -68 -10 -120 -4 -52 -9 -104 -11 -115 -2
-11 -6 -58 -9 -105 -9 -140 -6 -135 -83 -155 -37 -9 -105 -28 -152 -42 -161
-46 -186 -53 -495 -137 -742 -203 -1045 -279 -1089 -270 -64 12 -257 63 -671
175 -482 131 -1030 293 -1039 307 -4 7 -9 45 -21 162 -26 246 -30 296 -40 410
-3 36 -8 79 -10 95 -3 28 -7 60 -21 220 -3 33 -7 76 -9 95 -2 19 -7 69 -11
110 -4 41 -8 86 -9 100 -1 14 -5 61 -9 105 -4 44 -9 100 -11 125 -3 25 -7 68
-9 95 -12 124 -17 183 -21 225 -2 25 -9 101 -15 170 -6 69 -13 143 -15 165 -3
22 -7 72 -10 110 -3 39 -7 93 -10 120 -3 28 -7 82 -10 120 -3 39 -8 84 -10
100 -2 17 -7 66 -10 110 -9 119 -18 228 -30 345 -2 25 -7 75 -10 113 -8 99
-16 196 -20 244 -2 24 -7 78 -10 120 -3 43 -8 98 -10 123 -3 25 -7 77 -10 115
-3 39 -7 95 -10 125 -10 114 -17 206 -20 250 -2 25 -6 86 -10 135 -8 104 -8
93 -6 126 l1 27 262 1 c144 1 263 3 264 4 3 3 916 0 2374 -7z"/>
<path d="M2217 4993 c-7 -11 8 -338 18 -403 2 -14 6 -61 10 -105 3 -44 7 -102
10 -130 3 -27 7 -84 10 -125 6 -85 13 -164 20 -230 2 -25 7 -79 10 -120 3 -41
8 -95 10 -120 4 -41 13 -145 21 -245 1 -22 3 -50 3 -62 l1 -23 925 0 c936 0
931 0 926 -32 0 -4 -3 -40 -6 -80 -3 -40 -8 -98 -10 -128 -3 -30 -7 -84 -10
-120 -17 -197 -20 -224 -37 -280 -25 -83 -75 -116 -233 -156 -5 -1 -64 -17
-130 -34 -66 -17 -151 -39 -190 -48 l-70 -17 -228 62 c-298 82 -346 104 -382
174 -17 31 -28 126 -29 244 l-1 90 -220 2 c-262 3 -268 2 -261 -35 5 -24 7
-58 22 -252 7 -106 15 -195 20 -240 2 -25 6 -70 9 -100 2 -30 7 -76 11 -102
l6 -48 116 -36 c65 -19 140 -42 167 -50 104 -30 411 -116 425 -119 8 -2 87
-22 175 -45 97 -25 174 -39 195 -37 36 4 311 73 435 108 39 12 115 33 170 49
154 43 372 110 410 126 19 8 35 20 35 27 0 6 4 41 9 77 12 83 19 141 26 210
12 123 21 207 29 285 4 38 12 110 21 200 2 22 7 76 11 120 3 44 7 97 9 117 2
20 7 72 11 115 3 43 8 96 10 118 10 118 18 287 15 323 -1 9 -200 12 -959 12
l-959 0 -12 73 c-7 39 -16 90 -20 112 -4 22 -8 126 -10 230 l-3 191 1018 0
1018 0 2 72 c2 75 11 189 18 232 3 14 7 43 10 65 4 22 9 52 12 68 l6 27 -1306
0 c-717 0 -1307 -3 -1309 -7z"/>
</g>
</svg>
